name C:\Users\u0101727\Documents\MyRepositories\upper-imu-dc\Results\main_mocap_tracking\Case_8\FLX01_linearAccelerations.mot
datacolumns 4
datarows 70
range 2.01000000 2.70000000
endheader 
time	radius_imu_x	radius_imu_y	radius_imu_z	
          2.01000000	         -3.42949267	         -3.70104219	          7.24732017	
          2.02000000	         -3.13334699	         -3.76533396	          7.24120765	
          2.03000000	         -2.97685418	         -3.84758794	          7.20229962	
          2.04000000	         -2.97603862	         -3.95486189	          7.13088494	
          2.05000000	         -3.10952262	         -4.08547412	          7.03633505	
          2.06000000	         -3.32509662	         -4.22976794	          6.93350959	
          2.07000000	         -3.56055533	         -4.37445258	          6.83678598	
          2.08000000	         -3.76920453	         -4.50822023	          6.75484744	
          2.09000000	         -3.93804164	         -4.62548720	          6.68835613	
          2.10000000	         -4.08596105	         -4.72655316	          6.63152291	
          2.11000000	         -4.23773154	         -4.81496807	          6.57732110	
          2.12000000	         -4.39245194	         -4.89453938	          6.52308984	
          2.13000000	         -4.51439716	         -4.96800427	          6.47241973	
          2.14000000	         -4.55153219	         -5.03775229	          6.43285305	
          2.15000000	         -4.46487001	         -5.10734013	          6.41167897	
          2.16000000	         -4.25306049	         -5.18220267	          6.41121871	
          2.17000000	         -3.96370263	         -5.26875134	          6.42455986	
          2.18000000	         -3.68352753	         -5.37220446	          6.43456702	
          2.19000000	         -3.50590472	         -5.49400819	          6.41925500	
          2.20000000	         -3.49302081	         -5.63030326	          6.36150753	
          2.21000000	         -3.65850758	         -5.77265289	          6.25618662	
          2.22000000	         -3.97510738	         -5.91074255	          6.11045085	
          2.23000000	         -4.39336070	         -6.03586134	          5.93880957	
          2.24000000	         -4.85836328	         -6.14357035	          5.75686936	
          2.25000000	         -5.32004371	         -6.23448351	          5.57680215	
          2.26000000	         -5.73768686	         -6.31302660	          5.40540049	
          2.27000000	         -6.08084575	         -6.38479014	          5.24436070	
          2.28000000	         -6.32827526	         -6.45402690	          5.09152317	
          2.29000000	         -6.46635142	         -6.52295638	          4.94263078	
          2.30000000	         -6.48621664	         -6.59119691	          4.79381159	
          2.31000000	         -6.38033877	         -6.65621603	          4.64355213	
          2.32000000	         -6.14041347	         -6.71370893	          4.49423184	
          2.33000000	         -5.75876647	         -6.75847555	          4.35221303	
          2.34000000	         -5.23440762	         -6.78628952	          4.22612983	
          2.35000000	         -4.58288424	         -6.79652623	          4.12345658	
          2.36000000	         -3.84630954	         -6.79437259	          4.04626441	
          2.37000000	         -3.09763710	         -6.79102453	          3.98795143	
          2.38000000	         -2.43117077	         -6.80102156	          3.93375535	
          2.39000000	         -1.93545311	         -6.83753003	          3.86710628	
          2.40000000	         -1.66204868	         -6.90787049	          3.77885266	
          2.41000000	         -1.61266000	         -7.01160848	          3.67248801	
          2.42000000	         -1.74874647	         -7.14181286	          3.56222913	
          2.43000000	         -2.00997359	         -7.28813436	          3.46676937	
          2.44000000	         -2.33104503	         -7.43975302	          3.40282640	
          2.45000000	         -2.65434357	         -7.58700280	          3.38094366	
          2.46000000	         -2.93746551	         -7.72163452	          3.40420856	
          2.47000000	         -3.15486770	         -7.83640358	          3.46935326	
          2.48000000	         -3.29546075	         -7.92511310	          3.56877012	
          2.49000000	         -3.35940012	         -7.98383111	          3.69233891	
          2.50000000	         -3.35557718	         -8.01286625	          3.82869840	
          2.51000000	         -3.29935515	         -8.01797432	          3.96619260	
          2.52000000	         -3.20971237	         -8.00929722	          4.09372804	
          2.53000000	         -3.10600257	         -7.99835179	          4.20158614	
          2.54000000	         -3.00476576	         -7.99484021	          4.28209451	
          2.55000000	         -2.91730368	         -8.00493141	          4.33004575	
          2.56000000	         -2.84868486	         -8.03141503	          4.34283979	
          2.57000000	         -2.79819448	         -8.07512220	          4.32047818	
          2.58000000	         -2.76099239	         -8.13605347	          4.26548752	
          2.59000000	         -2.73026238	         -8.21304268	          4.18287335	
          2.60000000	         -2.69950648	         -8.30213978	          4.07983785	
          2.61000000	         -2.66454291	         -8.39538581	          3.96490262	
          2.62000000	         -2.62430965	         -8.48163174	          3.84649320	
          2.63000000	         -2.58016782	         -8.54947633	          3.73150399	
          2.64000000	         -2.53432314	         -8.59079187	          3.62440900	
          2.65000000	         -2.48838564	         -8.60318221	          3.52715552	
          2.66000000	         -2.44252298	         -8.59068707	          3.43964608	
          2.67000000	         -2.39539822	         -8.56287780	          3.36036917	
          2.68000000	         -2.34531334	         -8.53272289	          3.28689182	
          2.69000000	         -2.29233509	         -8.51366264	          3.21627387	
          2.70000000	         -2.23980063	         -8.51653573	          3.14556645	
